<svg width="49" height="49" viewBox="0 0 49 49" fill="none" xmlns="http://www.w3.org/2000/svg">
<path d="M16.625 0C16.625 12.9311 9.72754 24.5 0 24.5C9.72754 24.5 16.625 36.0697 16.625 49C16.625 36.0697 23.5225 24.5 33.25 24.5C23.5225 24.5 16.625 12.9311 16.625 0Z" fill="#008540"/>
<path d="M36.75 24.5C36.75 30.9664 33.1212 36.75 28 36.75C33.1212 36.75 36.75 42.5353 36.75 49C36.75 42.5353 40.3788 36.75 45.5 36.75C40.3788 36.75 36.75 30.9664 36.75 24.5Z" fill="#008540"/>
<path d="M40.6875 0C40.6875 6.46555 37.2401 12.25 32.375 12.25C37.2393 12.25 40.6875 18.0353 40.6875 24.5C40.6875 18.0353 44.1349 12.25 49 12.25C44.1349 12.25 40.6875 6.46555 40.6875 0Z" fill="#008540"/>
</svg>
