<svg width="40" height="41" viewBox="0 0 40 41" fill="none" xmlns="http://www.w3.org/2000/svg">
<circle cx="20" cy="20.5918" r="18" stroke="#008540" stroke-width="4"/>
<path d="M7.50029 15.3245L7.5 15.3245L6 22.324C8.16667 22.6574 13.5 25.4242 17.5 33.8242H22C22.8333 30.8241 26.2 24.3238 33 22.324L31.5 15.3245C19.5002 12.3234 13.5002 13.8239 7.50029 15.3245Z" fill="#008540" stroke="#008540"/>
<path d="M36 16.5918L30.5 15.0918L32 22.5918L37 22.0918L36 16.5918Z" fill="white" stroke="#008540"/>
<path d="M4 16.0918L8.5 15.0918L7 22.5918L3 21.5918L4 16.0918Z" fill="white" stroke="#008540"/>
<path d="M18 37.5918L17.5 33.5918H22V34.0918L22.5 37.5918H18Z" fill="white" stroke="#008540"/>
<circle cx="20" cy="19.5918" r="3" fill="white"/>
</svg>
