<svg width="35" height="33" viewBox="0 0 35 33" fill="none" xmlns="http://www.w3.org/2000/svg">
<path d="M34.4125 14.7283L29.1081 9.42385V3.29636C29.1081 2.18842 28.2103 1.29053 27.1007 1.29053C25.9937 1.29053 25.0959 2.18842 25.0959 3.29636V5.4117L21.1463 1.46199C19.1936 -0.489649 15.7985 -0.486187 13.8502 1.46553L0.58721 14.7283C-0.195737 15.5128 -0.195737 16.7822 0.58721 17.5654C1.37051 18.3497 2.64236 18.3497 3.42537 17.5654L16.6871 4.30235C17.1192 3.87258 17.8806 3.87258 18.3104 4.30107L31.5744 17.5654C31.9677 17.9576 32.4805 18.1527 32.9932 18.1527C33.5069 18.1527 34.0205 17.9574 34.4126 17.5654C35.1958 16.7822 35.1958 15.5128 34.4125 14.7283Z" fill="#008540"/>
<path d="M18.1964 8.1111C17.8111 7.72599 17.1871 7.72599 16.8029 8.1111L5.13675 19.7738C4.95257 19.958 4.84814 20.2093 4.84814 20.4717V28.978C4.84814 30.9741 6.4666 32.5925 8.46261 32.5925H14.2386V23.6475H20.7595V32.5925H26.5355C28.5315 32.5925 30.1499 30.9741 30.1499 28.9781V20.4717C30.1499 20.2093 30.0464 19.958 29.8613 19.7738L18.1964 8.1111Z" fill="#008540"/>
</svg>
