<svg width="44" height="28" viewBox="0 0 44 28" fill="none" xmlns="http://www.w3.org/2000/svg">
<path d="M9.14921 27.5918C6.58254 27.5918 4.50476 25.4973 4.50476 22.9099C4.50476 20.3226 6.58254 18.228 9.14921 18.228C11.7159 18.228 13.7937 20.3402 13.7937 22.9275C13.7937 25.5149 11.7159 27.5918 9.14921 27.5918ZM9.14921 21.361C8.29365 21.361 7.59524 22.0651 7.59524 22.9275C7.59524 23.79 8.29365 24.494 9.14921 24.494C10.0048 24.494 10.7032 23.79 10.7032 22.9275C10.7032 22.0651 10.0048 21.361 9.14921 21.361ZM32.1619 27.5918C29.5952 27.5918 27.5175 25.4973 27.5175 22.9099C27.5175 20.3226 29.5952 18.228 32.1619 18.228C34.7286 18.228 36.8064 20.3226 36.8064 22.9099C36.8064 25.4973 34.7111 27.5918 32.1619 27.5918ZM32.1619 21.361C31.3063 21.361 30.6079 22.0651 30.6079 22.9275C30.6079 23.79 31.3063 24.494 32.1619 24.494C33.0175 24.494 33.7159 23.79 33.7159 22.9275C33.7159 22.0651 33 21.361 32.1619 21.361ZM40.3857 10.9764H35.7937L27.5873 2.54551C26.3825 1.31344 24.7063 0.591797 22.9952 0.591797H6.56508C5.18571 0.591797 3.94603 1.41905 3.42222 2.70392L0 10.9764V22.0475H2.84603C3.26508 18.9145 5.93651 16.5207 9.14921 16.5207C12.3619 16.5207 15.0159 18.9321 15.4524 22.0475H25.8587C26.2778 18.9145 28.9492 16.5207 32.1619 16.5207C35.3746 16.5207 38.0286 18.9321 38.4651 22.0475H44V14.6022C44 12.5957 42.3762 10.9764 40.3857 10.9764ZM2.79365 10.9764L5.79683 3.70718C5.91905 3.39036 6.23333 3.19675 6.56508 3.19675H15.4524V10.9764H2.79365ZM18.0365 10.9764V3.17915H23.0127C24.0429 3.17915 25.0381 3.60158 25.754 4.34082L32.1794 10.9588H18.0365V10.9764ZM22.2619 5.50249C23.5714 5.50249 24.6365 6.57615 24.6365 7.89623C24.6365 9.21631 23.5714 10.29 22.2619 10.29C20.9524 10.29 19.8873 9.21631 19.8873 7.89623C19.8873 6.57615 20.9524 5.50249 22.2619 5.50249ZM9.77778 5.50249C11.0873 5.50249 12.1524 6.57615 12.1524 7.89623C12.1524 9.21631 11.0698 10.29 9.77778 10.29C8.48571 10.29 7.40317 9.21631 7.40317 7.89623C7.40317 6.57615 8.46825 5.50249 9.77778 5.50249Z" fill="#008540"/>
</svg>
